<?xml version="1.0" encoding="utf-8"?>
<!-- Generator: Adobe Illustrator 23.0.1, SVG Export Plug-In . SVG Version: 6.00 Build 0)  -->
<svg version="1.1" id="Calque_1" xmlns="http://www.w3.org/2000/svg" xmlns:xlink="http://www.w3.org/1999/xlink" x="0px" y="0px"
	 viewBox="0 0 323.1 70.68" style="enable-background:new 0 0 323.1 70.68;" xml:space="preserve">
<style type="text/css">
	.st0{fill:#FFFFFF;}
	.st1{fill:none;stroke:#000000;stroke-miterlimit:10;}
	.st2{fill:#F0AA42;}
</style>
<g>
	<path class="st0" d="M89.52,70.68l-0.1-65.12L76.95,70.68h-4.49L59.99,5.55l0.1,65.12h-4.89l0.6-70.41h7.18L74.65,61L86.32,0.27
		h7.18l0.7,70.41H89.52z"/>
	<path class="st0" d="M129.31,70.68l-3.59-21.44h-14.76l-3.69,21.44h-5.19l12.87-70.81h6.78l12.77,70.81H129.31z M119.34,11.94
		c-0.4-2.19-0.7-4.39-1-6.58c-0.2,2.09-0.5,4.09-0.8,6.08l-5.78,33.21h13.06L119.34,11.94z"/>
	<path class="st0" d="M140.58,43.65v-4.19h17.65v4.19H140.58z"/>
	<path class="st0" d="M176.58,4.65v66.02h-4.99V4.65h-12.27V0.27h29.72v4.39H176.58z"/>
	<path class="st0" d="M215.88,70.68l-3.59-21.44h-14.76l-3.69,21.44h-5.19l12.87-70.81h6.78l12.77,70.81H215.88z M205.91,11.94
		c-0.4-2.19-0.7-4.39-1-6.58c-0.2,2.09-0.5,4.09-0.8,6.08l-5.78,33.21h13.06L205.91,11.94z"/>
	<path class="st0" d="M253.38,67.68c-3.69,3.19-8.38,2.99-9.77,2.99h-14.06V0.27h13.36c1.1,0,6.08-0.4,9.08,2.99
		c1.99,2.29,2.39,5.29,2.39,8.08v10.47c0,0.5,0.1,2.99-0.5,4.79c-1.6,4.99-6.28,5.58-7.78,5.88c1,0.1,4.89,0.5,7.48,2.69
		c3.19,2.69,3.29,6.68,3.29,10.37v12.07C256.87,61.4,256.47,64.89,253.38,67.68z M249.59,12.23c0-2-0.2-3.29-0.5-4.09
		c-1.3-3.59-5.39-3.69-8.48-3.69h-6.18v26.13h4.79c2.69,0,3.39-0.2,4.79-0.6c5.98-1.79,5.58-7.58,5.58-9.27V12.23z M251.98,45.44
		c0-1.7-0.1-3.29-0.6-4.79c-1.89-5.19-7.18-5.78-11.87-5.78h-4.99v31.52h8.28c3.49,0,5.09-0.6,6.48-1.6
		c2.29-1.8,2.69-4.19,2.69-9.38V45.44z"/>
	<path class="st0" d="M266.84,70.68V0.27h4.89v66.02h18.35v4.39H266.84z"/>
	<path class="st0" d="M302.95,4.65v27.13h16.56v4.29h-16.56v30.22h20.05v4.39h-24.83V0.27h24.93v4.39H302.95z"/>
</g>
<g>
	<path class="st0" d="M9.37,50.75c0.1,2.45,1.09,4.77,2.78,6.55c0,0.01,0.01,0.01,0.02,0.02l3.01,3.03
		c1.17,1.18,1.81,2.82,1.74,4.48l-0.13,2.79c-0.01,0.32,0.11,0.61,0.32,0.82c0.18,0.18,0.44,0.3,0.72,0.32
		c0.6,0.03,1.11-0.44,1.14-1.04l0.13-2.8c0.1-2.27-0.77-4.5-2.37-6.11l-3.01-3.02c-1.31-1.37-2.07-3.17-2.17-5.06l1.65-19.18
		c0.02-0.2,0.18-0.34,0.37-0.34c0.14,0,0.22,0.07,0.27,0.11s0.11,0.13,0.11,0.27l0,15.95c0,1.58,1.28,2.86,2.86,2.86l1.87,0l0,0
		l3.33,0c0,0,0,0,0,0l1.88,0c1.58,0,2.86-1.28,2.86-2.86l0-15.95c0-0.21,0.17-0.38,0.38-0.38c0.2,0,0.36,0.15,0.37,0.34l1.65,19.18
		c-0.09,1.89-0.86,3.69-2.17,5.06l-3.01,3.02c-1.6,1.61-2.46,3.84-2.37,6.11l0.13,2.73c0.03,0.6,0.54,1.06,1.14,1.04
		c0.6-0.03,1.06-0.54,1.04-1.14l-0.13-2.72c-0.07-1.67,0.56-3.3,1.74-4.48l3.01-3.03c0.01-0.01,0.01-0.01,0.02-0.02
		c1.69-1.77,2.68-4.1,2.78-6.55c0-0.05,0-0.09,0-0.14l-1.66-19.25c-0.11-1.33-1.21-2.33-2.54-2.33c-1.41,0-2.55,1.15-2.55,2.55
		l0,15.95c0,0.38-0.31,0.68-0.68,0.68l-0.79,0l0-17.78c0-0.6-0.49-1.09-1.09-1.09c-0.6,0-1.09,0.49-1.09,1.09l0,17.78l-1.15,0
		l0-17.78c0-0.6-0.49-1.09-1.09-1.09c-0.6,0-1.09,0.49-1.09,1.09l0,17.78l-0.79,0c-0.38,0-0.68-0.31-0.68-0.68l0-15.95
		c0-0.68-0.27-1.32-0.75-1.81c-0.48-0.48-1.12-0.75-1.81-0.75c-1.34,0-2.43,1-2.54,2.33L9.38,50.61C9.37,50.66,9.37,50.7,9.37,50.75
		L9.37,50.75z M9.37,50.75"/>
</g>
<g>
	<path class="st2" d="M0.01,35.14c0-9.42-0.01-18.83,0-28.25C0.02,2.12,2.1,0.02,6.84,0.02C15.92,0,25-0.01,34.09,0.02
		c4.46,0.01,6.59,2.09,6.6,6.59c0.03,18.91,0.03,37.83,0.01,56.74c-0.01,4.56-2.05,6.57-6.56,6.58c-9.17,0.02-18.33,0.01-27.5,0
		c-4.51-0.01-6.61-2.06-6.62-6.54C-0.01,53.97,0.01,44.56,0.01,35.14z M2.64,34.64c0,9.5-0.02,18.99,0.01,28.49
		c0.01,3.15,1.08,4.2,4.22,4.21c9,0.02,17.99,0.02,26.99-0.01c3.18-0.01,4.17-1.02,4.17-4.21c0.01-18.66,0.01-37.32,0-55.98
		c0-3.56-0.85-4.41-4.42-4.41c-8.75-0.01-17.49-0.01-26.24,0c-3.88,0-4.73,0.83-4.73,4.67C2.63,16.48,2.64,25.56,2.64,34.64z"/>
</g>
<g>
	<path class="st2" d="M25.87,10.28H14.84c-0.83,0-1.5-0.67-1.5-1.5s0.67-1.5,1.5-1.5h11.03c0.83,0,1.5,0.67,1.5,1.5
		S26.7,10.28,25.87,10.28z"/>
</g>
</svg>
