<?xml version="1.0" encoding="utf-8"?>
<!-- Generator: Adobe Illustrator 23.0.1, SVG Export Plug-In . SVG Version: 6.00 Build 0)  -->
<svg version="1.1" id="Calque_1" xmlns="http://www.w3.org/2000/svg" xmlns:xlink="http://www.w3.org/1999/xlink" x="0px" y="0px"
	 viewBox="0 0 435.7 435.7" style="enable-background:new 0 0 435.7 435.7;" xml:space="preserve">
<style type="text/css">
	.st0{fill:#F0AA42;stroke:#FFFFFF;stroke-width:18;stroke-miterlimit:10;}
</style>
<g>
	<path class="st0" d="M407.3,181.8l-19.5-4.1c-0.8-3.4-1.7-6.8-2.7-10.1l14.9-13.4c4.3-3.8,5.7-10,3.4-15.3
		c-6.5-15-14.8-29.3-24.7-42.3c-3.5-4.6-9.5-6.5-14.9-4.7L345,98.1c-2.4-2.5-4.9-5-7.4-7.4l6.2-18.8c1.8-5.5-0.1-11.5-4.7-14.9
		c-13-9.9-27.3-18.2-42.3-24.7c-5.3-2.2-11.4-0.9-15.3,3.4l-13.4,15c-3.3-1-6.7-1.9-10.1-2.7l-4.1-19.5c-1.3-6.2-6.8-10.7-13.1-10.7
		h-45.8c-6.4,0-11.8,4.4-13.2,10.7l-4.1,19.5c-3.4,0.8-6.8,1.7-10.1,2.7l-13.4-14.9c-3.8-4.3-10-5.6-15.3-3.4
		c-15.1,6.5-29.3,14.8-42.3,24.7c-4.6,3.5-6.5,9.5-4.7,14.9l6.2,18.8c-2.5,2.4-5,4.9-7.4,7.4l-18.8-6.2C66.4,90.1,60.4,92,57,96.6
		c-9.9,13-18.2,27.3-24.7,42.3c-2.3,5.3-0.9,11.4,3.4,15.3l15,13.4c-1,3.3-1.9,6.7-2.7,10.1l-19.5,4.1c-6.2,1.3-10.7,6.8-10.7,13.2
		v45.8c0,6.4,4.5,11.9,10.7,13.2l19.5,4.1c0.8,3.4,1.7,6.7,2.7,10.1l-14.9,13.4c-4.3,3.8-5.7,10-3.4,15.3
		c6.5,15,14.8,29.3,24.7,42.3c3.5,4.6,9.5,6.5,14.9,4.7l18.8-6.2c2.4,2.5,4.9,5,7.4,7.4l-6.2,18.8c-1.8,5.5,0.1,11.5,4.7,14.9
		c13,9.9,27.3,18.2,42.3,24.7c5.3,2.3,11.5,0.9,15.3-3.4l13.4-15c3.4,1,6.7,1.9,10.1,2.7l4.1,19.5c1.3,6.2,6.8,10.7,13.2,10.7h45.8
		c6.4,0,11.8-4.5,13.2-10.7l4.1-19.5c3.4-0.8,6.7-1.7,10.1-2.7l13.4,14.9c3.8,4.3,10,5.7,15.3,3.4c15.1-6.5,29.3-14.8,42.3-24.7
		c4.6-3.5,6.5-9.5,4.7-14.9l-6.2-18.8c2.5-2.4,5-4.9,7.4-7.4l18.8,6.2c5.5,1.8,11.5-0.1,14.9-4.7c9.9-13,18.2-27.3,24.7-42.3
		c2.3-5.3,0.9-11.4-3.4-15.3l-14.9-13.4c1-3.3,1.9-6.7,2.7-10.1l19.5-4.1c6.2-1.3,10.7-6.8,10.7-13.2v-45.8
		C418,188.6,413.6,183.1,407.3,181.8L407.3,181.8z M391.1,229.9l-17.4,3.7c-5.4,1.1-9.5,5.4-10.5,10.8c-1.5,8-3.6,15.8-6.3,23.4
		c-1.9,5.2-0.4,10.9,3.7,14.6l14.1,12.6c-3.5,7-7.5,13.8-11.9,20.2l-17.8-5.8c-5.2-1.7-10.9-0.1-14.5,4.1c-5.2,6.2-11,12-17.2,17.2
		c-4.2,3.5-5.8,9.3-4.1,14.5l5.8,17.8c-6.5,4.4-13.2,8.4-20.2,11.9l-12.6-14.1c-3.7-4.1-9.4-5.5-14.6-3.7
		c-7.6,2.8-15.4,4.9-23.4,6.3c-5.4,1-9.6,5.1-10.8,10.5l-3.7,17.4h-24l-3.7-17.4c-1.1-5.3-5.4-9.5-10.8-10.5
		c-8-1.5-15.8-3.6-23.4-6.3c-5.1-1.8-10.9-0.4-14.6,3.7l-12.6,14.1c-7-3.5-13.8-7.5-20.2-11.9l5.8-17.8c1.7-5.2,0.1-10.9-4.1-14.5
		c-6.2-5.2-12-11-17.2-17.2c-3.5-4.2-9.3-5.8-14.5-4.1l-17.8,5.9c-4.4-6.5-8.4-13.2-11.9-20.2l14.1-12.6c4.1-3.7,5.5-9.4,3.7-14.6
		c-2.8-7.6-4.9-15.4-6.3-23.4c-1-5.4-5.1-9.6-10.5-10.8l-17.4-3.7v-24l17.4-3.7c5.3-1.1,9.5-5.4,10.5-10.8c1.5-8,3.6-15.8,6.3-23.4
		c1.8-5.2,0.4-10.9-3.7-14.6L61,140.8c3.5-7,7.5-13.8,11.9-20.2l17.8,5.8c5.2,1.7,10.9,0.1,14.5-4.1c5.3-6.2,11-12,17.2-17.2
		c4.2-3.5,5.8-9.3,4.1-14.5l-5.8-17.8c6.5-4.4,13.2-8.4,20.2-11.9l12.7,14.1c3.7,4.1,9.4,5.5,14.6,3.7c7.6-2.8,15.4-4.9,23.4-6.3
		c5.4-1,9.6-5.1,10.8-10.5l3.7-17.4h24l3.7,17.4c1.1,5.4,5.4,9.5,10.8,10.5c8,1.5,15.8,3.6,23.4,6.3c5.2,1.8,10.9,0.4,14.6-3.7
		L294.9,61c7,3.5,13.8,7.5,20.3,11.9l-5.8,17.8c-1.7,5.2-0.1,10.9,4.1,14.5c6.2,5.2,12,11,17.2,17.2c3.6,4.1,9.3,5.8,14.5,4.1
		l17.8-5.8c4.4,6.5,8.4,13.2,11.9,20.2l-14.1,12.6c-4.1,3.6-5.5,9.4-3.7,14.6c2.7,7.6,4.9,15.4,6.3,23.4c1,5.4,5.1,9.6,10.5,10.8
		l17.4,3.7L391.1,229.9L391.1,229.9z"/>
	<path class="st0" d="M217.9,96.8c-66.8,0-121,54.2-121,121s54.2,121,121,121c66.8-0.1,120.9-54.2,121-121
		C338.9,151,284.7,96.8,217.9,96.8L217.9,96.8z M217.9,312c-52-0.1-94.1-42.2-94.1-94.1c0-52,42.1-94.1,94.1-94.1
		s94.1,42.1,94.1,94.1S269.8,312,217.9,312L217.9,312z"/>
	<path class="st0" d="M261.3,168.9l-57.8,69.4l-29.9-29.9l-19,19l40.3,40.3c2.5,2.5,5.9,3.9,9.5,3.9c0.2,0,0.4,0,0.6,0
		c3.8-0.2,7.3-1.9,9.7-4.8l67.2-80.7L261.3,168.9z"/>
</g>
</svg>
