<?xml version="1.0" encoding="utf-8"?>
<!-- Generator: Adobe Illustrator 23.0.1, SVG Export Plug-In . SVG Version: 6.00 Build 0)  -->
<svg version="1.1" id="Calque_1" xmlns="http://www.w3.org/2000/svg" xmlns:xlink="http://www.w3.org/1999/xlink" x="0px" y="0px"
	 viewBox="0 0 435.7 435.7" style="enable-background:new 0 0 435.7 435.7;" xml:space="preserve">
<style type="text/css">
	.st0{fill:#F0AA42;stroke:#FFFFFF;stroke-width:15;stroke-miterlimit:10;}
</style>
<g>
	<path class="st0" d="M383.6,63.8h-36.8c-1.1-10-3.7-19.2-7.5-26.8c-6.6-13.1-16.2-20.3-27.2-20.3s-20.7,7.2-27.2,20.3
		c-3.8,7.6-6.4,16.9-7.5,26.8h-24.9c-1.1-10-3.7-19.2-7.5-26.8c-6.6-13.1-16.2-20.3-27.2-20.3c-11,0-20.7,7.2-27.2,20.3
		c-3.8,7.6-6.4,16.9-7.5,26.8h-24.9c-1.1-10-3.7-19.2-7.5-26.8c-6.5-13.1-16.2-20.3-27.2-20.3S102.9,23.9,96.3,37
		c-3.8,7.6-6.4,16.9-7.5,26.8H52.1c-19.5,0-35.4,15.9-35.4,35.4v284.4c0,19.5,15.9,35.4,35.4,35.4h331.6c19.5,0,35.4-15.9,35.4-35.4
		V99.2C419,79.7,403.1,63.8,383.6,63.8L383.6,63.8z M306,47.6c3-6,5.7-7.3,6.1-7.3c0.4,0,3.1,1.3,6.1,7.3c2.2,4.5,3.9,10.1,4.8,16.3
		h-21.8C302.1,57.7,303.8,52,306,47.6L306,47.6z M211.7,47.6c3-6,5.7-7.3,6.1-7.3c0.4,0,3.1,1.3,6.1,7.3c2.2,4.5,3.9,10.1,4.8,16.3
		h-21.8C207.9,57.7,209.5,52,211.7,47.6L211.7,47.6z M117.4,47.6c3-6,5.7-7.3,6.1-7.3c0.4,0,3.1,1.3,6.1,7.3
		c2.2,4.5,3.9,10.1,4.8,16.3h-21.9C113.6,57.7,115.2,52,117.4,47.6L117.4,47.6z M52.1,87.4h82.4c-0.9,6.2-2.6,11.8-4.8,16.3
		c-3,6-5.7,7.3-6.1,7.3c-6.5,0-11.8,5.3-11.8,11.8c0,6.5,5.3,11.8,11.8,11.8c11,0,20.7-7.2,27.2-20.3c3.8-7.6,6.4-16.9,7.5-26.8
		h70.5c-0.9,6.2-2.6,11.8-4.8,16.3c-3,6-5.7,7.3-6.1,7.3c-6.5,0-11.8,5.3-11.8,11.8s5.3,11.8,11.8,11.8c11,0,20.7-7.2,27.2-20.3
		c3.8-7.6,6.4-16.9,7.5-26.8H323c-0.9,6.2-2.6,11.8-4.8,16.3c-3,6-5.7,7.3-6.1,7.3c-6.5,0-11.8,5.3-11.8,11.8
		c0,6.5,5.3,11.8,11.8,11.8c11,0,20.7-7.2,27.2-20.3c3.8-7.6,6.4-16.9,7.5-26.8h36.8c6.5,0,11.8,5.3,11.8,11.8v59.7H40.3V99.2
		C40.3,92.7,45.6,87.4,52.1,87.4L52.1,87.4z M383.6,395.4H52.1c-6.5,0-11.8-5.3-11.8-11.8V182.5h355.2v201.1
		C395.4,390.1,390.1,395.4,383.6,395.4L383.6,395.4z"/>
	<path class="st0" d="M359.3,206.1H76.4c-6.5,0-11.8,5.3-11.8,11.8v142.2c0,6.5,5.3,11.8,11.8,11.8h282.9c6.5,0,11.8-5.3,11.8-11.8
		V217.9C371.1,211.3,365.8,206.1,359.3,206.1L359.3,206.1z M347.5,276.8h-47.1v-47.1h47.1V276.8z M206.1,300.4v47.9h-47.1v-47.9
		H206.1z M158.9,276.8v-47.1h47.1v47.1H158.9z M229.6,300.4h47.1v47.9h-47.1V300.4z M229.6,276.8v-47.1h47.1v47.1H229.6z
		 M135.3,229.6v47.1H88.2v-47.1H135.3z M88.2,300.4h47.1v47.9H88.2V300.4z M300.4,348.3v-47.9h47.1v47.9H300.4z"/>
</g>
</svg>
