<?xml version="1.0" encoding="utf-8"?>
<!-- Generator: Adobe Illustrator 23.0.1, SVG Export Plug-In . SVG Version: 6.00 Build 0)  -->
<svg version="1.1" id="Calque_1" xmlns="http://www.w3.org/2000/svg" xmlns:xlink="http://www.w3.org/1999/xlink" x="0px" y="0px"
	 viewBox="0 0 435.6 435.7" style="enable-background:new 0 0 435.6 435.7;" xml:space="preserve">
<style type="text/css">
	.st0{fill:#F0AA42;stroke:#FFFFFF;stroke-width:15;stroke-miterlimit:10;}
</style>
<g>
	<path class="st0" d="M332.1,40.3c-13-14.6-31-22.7-50.8-22.7c-22,0-41.1,10.4-55.2,30.1c-1.1,1.5-2,3-3,4.4c-0.9-1.5-1.9-2.9-3-4.4
		C206.1,28,187,17.6,165,17.6c-19.7,0-37.8,8.1-50.8,22.7C101.8,54.2,95,72.7,95,92.5c0,21.5,8.4,41.4,26.3,62.5
		c15.6,18.4,38.1,37.4,64.1,59.3c9.6,8.1,19.5,16.5,30.1,25.6c2.2,1.9,4.9,2.9,7.7,2.9s5.5-1,7.7-2.9c10.6-9.1,20.5-17.5,30.1-25.6
		c16.7-14.1,31.1-26.3,43.6-38.1c24.3-22.9,46.8-48.9,46.8-83.8C351.3,72.7,344.5,54.2,332.1,40.3L332.1,40.3z M288.4,159.2
		c-12,11.4-26.2,23.3-42.6,37.2c-7.3,6.2-14.8,12.5-22.6,19.2c-7.8-6.7-15.3-13-22.6-19.2c-51.2-43.2-82-69.2-82-103.9
		c0-29.3,20-51.4,46.5-51.4c14.2,0,26.2,6.7,35.8,19.8c7.9,10.8,11.1,22,11.1,22c1.4,5.1,6,8.6,11.3,8.6c5.3,0,9.9-3.5,11.3-8.6
		c0.1-0.4,12-41.8,46.9-41.8c26.5,0,46.5,22.1,46.5,51.4C327.8,113.8,316.8,132.5,288.4,159.2L288.4,159.2z"/>
	<path class="st0" d="M382.8,253.9c-9.7,0-19.1,4.1-25.8,11.2l-34.5,37c-4.5-14.3-17.8-24.8-33.6-24.8h-54.2
		c-7.6,0-14.9-2.8-20.6-7.8c-30.6-27-76.7-27.2-107.6-0.7c-6.4-9-16.9-14.9-28.8-14.9H29.3c-6.5,0-11.7,5.2-11.7,11.7v140.8
		c0,6.5,5.2,11.7,11.7,11.7h48.5c10.5,0,20-4.7,26.4-12l6.9,1.9c23.8,6.7,48.3,10.1,73,10.1H289c25.7,0,50.3-12.3,65.7-32.8
		l56.3-75.1l0,0c4.6-6.1,7-13.4,7-21.1C418,269.7,402.2,253.9,382.8,253.9L382.8,253.9z M89.6,382.9c0,6.5-5.3,11.7-11.7,11.7H41.1
		V277.3h36.8c6.5,0,11.7,5.3,11.7,11.7C89.6,289.1,89.6,382.9,89.6,382.9z M392.2,296.1l-56.3,75.1c-11,14.7-28.6,23.5-46.9,23.5
		H184.2c-22.5,0-45-3.1-66.7-9.2l-4.6-1.3c0-0.4,0-0.8,0-1.3v-88.5l8.2-7.2c22.1-19.4,55.4-19.4,77.5,0c10,8.8,22.8,13.6,36.1,13.6
		H289c6.5,0,11.7,5.3,11.7,11.7s-5.3,11.7-11.7,11.7h-83.4c-6.5,0-11.7,5.2-11.7,11.7c0,6.5,5.2,11.7,11.7,11.7h91.2
		c9.7,0,19.1-4.1,25.7-11.2l51.6-55.4c2.2-2.4,5.3-3.7,8.6-3.7c6.5,0,11.7,5.3,11.7,11.7C394.5,291.6,393.7,294,392.2,296.1
		L392.2,296.1z"/>
</g>
</svg>
