<svg height="512pt" viewBox="0 -80 512 512" width="512pt" xmlns="http://www.w3.org/2000/svg"><path d="m24 8h464c8.835938 0 16 7.164062 16 16v304c0 8.835938-7.164062 16-16 16h-464c-8.835938 0-16-7.164062-16-16v-304c0-8.835938 7.164062-16 16-16zm0 0" fill="#3e3d42"/><path d="m312 184h24v104h-24zm0 0" fill="#acabb1"/><path d="m318.6875 64h-6.6875v120h48v-78.6875c0-22.816406-18.496094-41.3125-41.3125-41.3125zm0 0" fill="#acabb1"/><path d="m408 144h24v144h-24zm0 0" fill="#acabb1"/><path d="m432 96v-32h-48v64c0 8.835938 7.164062 16 16 16h40c8.835938 0 16-7.164062 16-16v-64h-24zm0 0" fill="#acabb1"/><path d="m104 40h96v96h-96zm0 0" fill="#ff9811"/><g fill="#231f20"><path d="m488 0h-464c-13.253906 0-24 10.746094-24 24v304c0 13.253906 10.746094 24 24 24h464c13.253906 0 24-10.746094 24-24v-304c0-13.253906-10.746094-24-24-24zm8 328c0 4.417969-3.582031 8-8 8h-464c-4.417969 0-8-3.582031-8-8v-304c0-4.417969 3.582031-8 8-8h464c4.417969 0 8 3.582031 8 8zm0 0"/><path d="m318.6875 56h-6.6875c-4.417969 0-8 3.582031-8 8v224c0 4.417969 3.582031 8 8 8h24c4.417969 0 8-3.582031 8-8v-96h16c4.417969 0 8-3.582031 8-8v-78.6875c-.035156-27.21875-22.09375-49.277344-49.3125-49.3125zm9.3125 224h-8v-88h8zm24-104h-32v-104c17.863281.726562 31.980469 15.410156 32 33.289062zm0 0"/><path d="m456 56h-72c-4.417969 0-8 3.582031-8 8v64c0 13.253906 10.746094 24 24 24v136c0 4.417969 3.582031 8 8 8h24c4.417969 0 8-3.582031 8-8v-136c13.253906 0 24-10.746094 24-24v-64c0-4.417969-3.582031-8-8-8zm-32 224h-8v-128h8zm24-152c0 4.417969-3.582031 8-8 8h-40c-4.417969 0-8-3.582031-8-8v-56h8v24h16v-24h8v24h16v-24h8zm0 0"/><path d="m104 144h96c4.417969 0 8-3.582031 8-8v-96c0-4.417969-3.582031-8-8-8h-96c-4.417969 0-8 3.582031-8 8v96c0 4.417969 3.582031 8 8 8zm8-96h80v80h-80zm0 0"/><path d="m48 160h208v16h-208zm0 0"/><path d="m48 192h144v16h-144zm0 0"/><path d="m48 224h144v16h-144zm0 0"/><path d="m48 256h144v16h-144zm0 0"/><path d="m48 288h208v16h-208zm0 0"/></g></svg>